<svg xmlns="http://www.w3.org/2000/svg" viewBox="300 350 2550 650" preserveAspectRatio="xMidYMid meet">
<g transform="translate(0,1320) scale(1,-1)" fill="#333333" stroke="none">
<path d="M1520 835 l0 -245 34 0 34 0 4 119 c3 110 5 121 27 145 52 55 132 51
179 -9 20 -25 22 -40 22 -141 l0 -114 35 0 35 0 0 123 c0 116 -1 125 -27 164
-51 79 -161 111 -241 69 l-32 -17 0 76 0 75 -35 0 -35 0 0 -245z"/>
<path d="M426 959 c-114 -27 -175 -149 -127 -254 46 -100 151 -139 250 -95
l44 20 -6 -60 c-6 -72 -25 -105 -73 -127 -29 -14 -42 -15 -77 -6 -35 10 -45 9
-59 -4 -27 -25 -22 -39 22 -57 53 -21 95 -20 146 3 87 40 117 117 112 291 l-3
105 -34 0 c-29 0 -35 -4 -45 -35 -25 -79 -126 -103 -187 -44 -76 73 -25 197
81 197 22 0 46 -5 53 -12 11 -8 19 -5 36 13 13 14 20 30 16 36 -16 26 -95 42
-149 29z"/>
<path d="M717 963 c-4 -3 -7 -19 -7 -35 0 -21 5 -28 20 -28 19 0 19 0 0 -42
-25 -54 -25 -102 -1 -153 48 -104 156 -143 259 -94 139 68 132 275 -13 340
-51 24 -99 23 -152 -1 -43 -19 -43 -19 -43 0 0 15 -7 20 -28 20 -16 0 -32 -3
-35 -7z m241 -87 c35 -18 56 -57 55 -102 -2 -75 -73 -126 -144 -105 -52 16
-79 53 -79 108 0 38 5 50 34 79 38 38 85 45 134 20z"/>
<path d="M1150 780 l0 -190 35 0 35 0 0 115 c0 113 0 115 30 148 36 41 71 50
125 31 38 -13 41 -12 64 10 l23 24 -26 17 c-54 35 -127 39 -187 9 -24 -12 -27
-11 -32 6 -4 15 -14 20 -36 20 l-31 0 0 -190z"/>
<path d="M2090 959 c-169 -50 -186 -277 -25 -350 51 -24 99 -23 153 1 42 19
42 19 42 0 0 -16 7 -20 35 -20 l35 0 0 98 c0 110 -12 163 -45 208 -41 54 -128
82 -195 63z m120 -88 c14 -10 31 -36 38 -58 17 -53 -2 -104 -50 -133 -58 -35
-115 -21 -155 39 -29 43 -29 79 0 122 38 57 110 69 167 30z"/>
<path d="M2387 963 c-4 -3 -7 -89 -7 -190 l0 -183 35 0 35 0 0 89 c0 116 7
146 41 180 52 53 134 44 176 -18 20 -30 23 -46 23 -142 l0 -109 35 0 35 0 0
110 c0 147 -25 206 -105 247 -39 21 -122 20 -162 -1 -41 -20 -43 -20 -43 4 0
15 -7 20 -28 20 -16 0 -32 -3 -35 -7z"/>
</g>
</svg>
